<svg id="visual" viewBox="0 0 400 250" width="400" height="250" xmlns="http://www.w3.org/2000/svg" xmlns:xlink="http://www.w3.org/1999/xlink" version="1.1"><rect x="0" y="0" width="400" height="250" fill="#090909"></rect><path d="M0 184L9.5 182.2C19 180.3 38 176.7 57 177.3C76 178 95 183 114 190C133 197 152 206 171.2 203.5C190.3 201 209.7 187 228.8 182.8C248 178.7 267 184.3 286 192.3C305 200.3 324 210.7 343 212.2C362 213.7 381 206.3 390.5 202.7L400 199L400 251L390.5 251C381 251 362 251 343 251C324 251 305 251 286 251C267 251 248 251 228.8 251C209.7 251 190.3 251 171.2 251C152 251 133 251 114 251C95 251 76 251 57 251C38 251 19 251 9.5 251L0 251Z" fill="#f6f6f6" stroke-linecap="round" stroke-linejoin="miter"></path></svg>