<svg id="visual" viewBox="0 0 900 600" width="900" height="600" xmlns="http://www.w3.org/2000/svg" xmlns:xlink="http://www.w3.org/1999/xlink" version="1.1"><path d="M0 163L300 157L600 229L900 247L900 0L600 0L300 0L0 0Z" fill="#cc7c00"></path><path d="M0 271L300 247L600 307L900 307L900 245L600 227L300 155L0 161Z" fill="#d88615"></path><path d="M0 337L300 343L600 445L900 397L900 305L600 305L300 245L0 269Z" fill="#e49024"></path><path d="M0 511L300 511L600 559L900 469L900 395L600 443L300 341L0 335Z" fill="#f09a31"></path><path d="M0 601L300 601L600 601L900 601L900 467L600 557L300 509L0 509Z" fill="#fca53d"></path></svg>