<svg id="visual" viewBox="0 0 900 600" width="900" height="600" xmlns="http://www.w3.org/2000/svg" xmlns:xlink="http://www.w3.org/1999/xlink" version="1.1"><path d="M0 79L82 79L82 37L164 37L164 67L245 67L245 67L327 67L327 85L409 85L409 43L491 43L491 97L573 97L573 103L655 103L655 79L736 79L736 103L818 103L818 61L900 61L900 55L900 0L900 0L818 0L818 0L736 0L736 0L655 0L655 0L573 0L573 0L491 0L491 0L409 0L409 0L327 0L327 0L245 0L245 0L164 0L164 0L82 0L82 0L0 0Z" fill="#fa7268"></path><path d="M0 175L82 175L82 127L164 127L164 127L245 127L245 169L327 169L327 145L409 145L409 97L491 97L491 139L573 139L573 157L655 157L655 199L736 199L736 139L818 139L818 103L900 103L900 109L900 53L900 59L818 59L818 101L736 101L736 77L655 77L655 101L573 101L573 95L491 95L491 41L409 41L409 83L327 83L327 65L245 65L245 65L164 65L164 35L82 35L82 77L0 77Z" fill="#ea5e66"></path><path d="M0 283L82 283L82 229L164 229L164 265L245 265L245 271L327 271L327 289L409 289L409 169L491 169L491 295L573 295L573 217L655 217L655 247L736 247L736 295L818 295L818 187L900 187L900 205L900 107L900 101L818 101L818 137L736 137L736 197L655 197L655 155L573 155L573 137L491 137L491 95L409 95L409 143L327 143L327 167L245 167L245 125L164 125L164 125L82 125L82 173L0 173Z" fill="#d84a64"></path><path d="M0 433L82 433L82 331L164 331L164 517L245 517L245 487L327 487L327 523L409 523L409 373L491 373L491 475L573 475L573 451L655 451L655 427L736 427L736 445L818 445L818 343L900 343L900 445L900 203L900 185L818 185L818 293L736 293L736 245L655 245L655 215L573 215L573 293L491 293L491 167L409 167L409 287L327 287L327 269L245 269L245 263L164 263L164 227L82 227L82 281L0 281Z" fill="#c53762"></path><path d="M0 601L82 601L82 601L164 601L164 601L245 601L245 601L327 601L327 601L409 601L409 601L491 601L491 601L573 601L573 601L655 601L655 601L736 601L736 601L818 601L818 601L900 601L900 601L900 443L900 341L818 341L818 443L736 443L736 425L655 425L655 449L573 449L573 473L491 473L491 371L409 371L409 521L327 521L327 485L245 485L245 515L164 515L164 329L82 329L82 431L0 431Z" fill="#b0235f"></path></svg>