<svg id="visual" viewBox="0 0 900 600" width="900" height="600" xmlns="http://www.w3.org/2000/svg" xmlns:xlink="http://www.w3.org/1999/xlink" version="1.1"><rect x="0" y="0" width="900" height="600" fill="#000000"></rect><path d="M446 0L657 0L657 67L362 67L362 133L423 133L423 200L677 200L677 267L690 267L690 333L398 333L398 400L332 400L332 467L589 467L589 533L676 533L676 600L0 600L0 533L0 533L0 467L0 467L0 400L0 400L0 333L0 333L0 267L0 267L0 200L0 200L0 133L0 133L0 67L0 67L0 0L0 0Z" fill="#0c0c0c"></path><path d="M331 0L204 0L204 67L530 67L530 133L377 133L377 200L570 200L570 267L221 267L221 333L257 333L257 400L187 400L187 467L382 467L382 533L240 533L240 600L0 600L0 533L0 533L0 467L0 467L0 400L0 400L0 333L0 333L0 267L0 267L0 200L0 200L0 133L0 133L0 67L0 67L0 0L0 0Z" fill="#191919"></path><path d="M194 0L128 0L128 67L434 67L434 133L422 133L422 200L125 200L125 267L283 267L283 333L384 333L384 400L177 400L177 467L401 467L401 533L166 533L166 600L0 600L0 533L0 533L0 467L0 467L0 400L0 400L0 333L0 333L0 267L0 267L0 200L0 200L0 133L0 133L0 67L0 67L0 0L0 0Z" fill="#252525"></path><path d="M219 0L143 0L143 67L82 67L82 133L99 133L99 200L111 200L111 267L101 267L101 333L241 333L241 400L174 400L174 467L220 467L220 533L99 533L99 600L0 600L0 533L0 533L0 467L0 467L0 400L0 400L0 333L0 333L0 267L0 267L0 200L0 200L0 133L0 133L0 67L0 67L0 0L0 0Z" fill="#303030"></path></svg>