<svg id="visual" viewBox="0 0 900 600" width="900" height="600" xmlns="http://www.w3.org/2000/svg" xmlns:xlink="http://www.w3.org/1999/xlink" version="1.1"><path d="M0 133L82 151L164 151L245 133L327 217L409 163L491 199L573 199L655 235L736 121L818 109L900 85L900 0L818 0L736 0L655 0L573 0L491 0L409 0L327 0L245 0L164 0L82 0L0 0Z" fill="#038373"></path><path d="M0 253L82 193L164 277L245 223L327 253L409 223L491 241L573 265L655 355L736 223L818 151L900 181L900 83L818 107L736 119L655 233L573 197L491 197L409 161L327 215L245 131L164 149L82 149L0 131Z" fill="#00957c"></path><path d="M0 331L82 343L164 409L245 301L327 385L409 277L491 385L573 325L655 409L736 361L818 253L900 337L900 179L818 149L736 221L655 353L573 263L491 239L409 221L327 251L245 221L164 275L82 191L0 251Z" fill="#00a784"></path><path d="M0 547L82 517L164 541L245 505L327 499L409 505L491 499L573 541L655 517L736 499L818 553L900 529L900 335L818 251L736 359L655 407L573 323L491 383L409 275L327 383L245 299L164 407L82 341L0 329Z" fill="#00b98a"></path><path d="M0 601L82 601L164 601L245 601L327 601L409 601L491 601L573 601L655 601L736 601L818 601L900 601L900 527L818 551L736 497L655 515L573 539L491 497L409 503L327 497L245 503L164 539L82 515L0 545Z" fill="#00cc8e"></path></svg>