<svg id="visual" viewBox="0 0 900 600" width="900" height="600" xmlns="http://www.w3.org/2000/svg" xmlns:xlink="http://www.w3.org/1999/xlink" version="1.1"><rect x="0" y="0" width="900" height="600" fill="#8cdd63"></rect><defs><linearGradient id="grad1_0" x1="33.3%" y1="0%" x2="100%" y2="100%"><stop offset="20%" stop-color="#48b82e" stop-opacity="1"></stop><stop offset="80%" stop-color="#48b82e" stop-opacity="1"></stop></linearGradient></defs><defs><linearGradient id="grad1_1" x1="33.3%" y1="0%" x2="100%" y2="100%"><stop offset="20%" stop-color="#48b82e" stop-opacity="1"></stop><stop offset="80%" stop-color="#6cca49" stop-opacity="1"></stop></linearGradient></defs><defs><linearGradient id="grad1_2" x1="33.3%" y1="0%" x2="100%" y2="100%"><stop offset="20%" stop-color="#8cdd63" stop-opacity="1"></stop><stop offset="80%" stop-color="#6cca49" stop-opacity="1"></stop></linearGradient></defs><defs><linearGradient id="grad2_0" x1="0%" y1="0%" x2="66.7%" y2="100%"><stop offset="20%" stop-color="#48b82e" stop-opacity="1"></stop><stop offset="80%" stop-color="#48b82e" stop-opacity="1"></stop></linearGradient></defs><defs><linearGradient id="grad2_1" x1="0%" y1="0%" x2="66.7%" y2="100%"><stop offset="20%" stop-color="#6cca49" stop-opacity="1"></stop><stop offset="80%" stop-color="#48b82e" stop-opacity="1"></stop></linearGradient></defs><defs><linearGradient id="grad2_2" x1="0%" y1="0%" x2="66.7%" y2="100%"><stop offset="20%" stop-color="#6cca49" stop-opacity="1"></stop><stop offset="80%" stop-color="#8cdd63" stop-opacity="1"></stop></linearGradient></defs><g transform="translate(900, 0)"><path d="M0 513.8C-71.4 511.8 -142.8 509.7 -196.6 474.7C-250.5 439.6 -286.8 371.6 -315.4 315.4C-343.9 259.2 -364.6 214.8 -396.3 164.2C-428.1 113.6 -470.9 56.8 -513.8 0L0 0Z" fill="#7cd456"></path><path d="M0 342.5C-47.6 341.2 -95.2 339.8 -131.1 316.5C-167 293.1 -191.2 247.7 -210.2 210.2C-229.3 172.8 -243.1 143.2 -264.2 109.4C-285.4 75.7 -314 37.9 -342.5 0L0 0Z" fill="#5bc13c"></path><path d="M0 171.3C-23.8 170.6 -47.6 169.9 -65.5 158.2C-83.5 146.5 -95.6 123.9 -105.1 105.1C-114.6 86.4 -121.5 71.6 -132.1 54.7C-142.7 37.9 -157 18.9 -171.3 0L0 0Z" fill="#48b82e"></path></g><g transform="translate(0, 600)"><path d="M0 -513.8C59.4 -493.5 118.9 -473.1 187.9 -453.6C256.9 -434.1 335.6 -415.5 363.3 -363.3C391 -311.1 367.7 -225.3 384.3 -159.2C400.9 -93.1 457.4 -46.5 513.8 0L0 0Z" fill="#7cd456"></path><path d="M0 -342.5C39.6 -329 79.2 -315.4 125.3 -302.4C171.3 -289.4 223.7 -277 242.2 -242.2C260.7 -207.4 245.2 -150.2 256.2 -106.1C267.3 -62 304.9 -31 342.5 0L0 0Z" fill="#5bc13c"></path><path d="M0 -171.3C19.8 -164.5 39.6 -157.7 62.6 -151.2C85.6 -144.7 111.9 -138.5 121.1 -121.1C130.3 -103.7 122.6 -75.1 128.1 -53.1C133.6 -31 152.5 -15.5 171.3 0L0 0Z" fill="#48b82e"></path></g></svg>