<svg id="visual" viewBox="0 0 900 600" width="900" height="600" xmlns="http://www.w3.org/2000/svg" xmlns:xlink="http://www.w3.org/1999/xlink" version="1.1"><path d="M0 289L225 241L450 241L675 115L900 175L900 0L675 0L450 0L225 0L0 0Z" fill="#12133a"></path><path d="M0 421L225 379L450 361L675 367L900 373L900 173L675 113L450 239L225 239L0 287Z" fill="#11195c"></path><path d="M0 499L225 439L450 463L675 457L900 433L900 371L675 365L450 359L225 377L0 419Z" fill="#0c1e80"></path><path d="M0 559L225 511L450 565L675 529L900 511L900 431L675 455L450 461L225 437L0 497Z" fill="#0322a6"></path><path d="M0 601L225 601L450 601L675 601L900 601L900 509L675 527L450 563L225 509L0 557Z" fill="#0025cc"></path></svg>